<svg width="39" height="38" viewBox="0 0 39 38" fill="none" xmlns="http://www.w3.org/2000/svg">
    <rect width="38.2208" height="37.1943" rx="5" fill="#019EFF" />
    <path d="M25 9.408V11.1136C25 11.7412 24.4912 12.25 23.8636 12.25C23.236 12.25 22.7273 11.7412 22.7273 11.1136V10.4016C22.7273 9.93547 22.5512 9.48656 22.2342 9.14477L22.0818 8.98039C21.6239 8.48655 20.9809 8.20588 20.3074 8.20588H15.2361C14.5242 8.20588 13.8631 8.57445 13.4887 9.17998C13.2881 9.50455 13.1818 9.87859 13.1818 10.2602V24.6097C13.1818 25.1821 13.3412 25.7432 13.6422 26.23C14.2037 27.1383 15.1954 27.6912 16.2632 27.6912H17.5407C18.5349 27.6912 19.4899 27.3039 20.2033 26.6115C20.945 25.8916 21.3636 24.902 21.3636 23.8683V18.5617C21.3636 17.4333 20.6253 16.4378 19.5455 16.1103L18.6289 15.8323C18.0934 15.6699 17.7273 15.1762 17.7273 14.6167C17.7273 13.7889 18.5063 13.1822 19.3089 13.3851L22.1371 14.0999C23.7953 14.519 24.9171 16.0633 24.8031 17.7699L24.269 25.7624C24.1563 27.4479 23.2904 28.993 21.9115 29.9689C20.9636 30.6397 19.8309 31 18.6696 31H14.9238C13.7967 31 12.7037 30.6133 11.8274 29.9045C10.6716 28.9697 10 27.5627 10 26.0762V9.08143C10 8.50906 10.1594 7.948 10.4604 7.46115C11.0219 6.55285 12.0136 6 13.0814 6H21.1771C22.1712 6 23.1263 6.38727 23.8397 7.07966L24.1374 7.36864C24.6888 7.90385 25 8.63955 25 9.408Z" fill="white" stroke="white" stroke-width="1.5" />
</svg>